<?xml version="1.0" encoding="iso-8859-1"?>
<!-- Generator: Adobe Illustrator 18.1.1, SVG Export Plug-In . SVG Version: 6.00 Build 0)  -->
<svg version="1.1" id="Capa_1" xmlns="http://www.w3.org/2000/svg" xmlns:xlink="http://www.w3.org/1999/xlink" x="0px" y="0px"
	 viewBox="0 0 612 612" style="enable-background:new 0 0 612 612;" xml:space="preserve">
	<g>
		<path d="M306,87.735c-120.352,0-218.265,97.914-218.265,218.266S185.648,524.266,306,524.266s218.266-97.912,218.266-218.265
			S426.352,87.735,306,87.735z M420.801,328.658H306c-12.513,0-22.658-10.145-22.658-22.656V166.306
			c0-12.513,10.143-22.656,22.658-22.656c12.513,0,22.656,10.145,22.656,22.656v117.037h92.145
			c12.513,0,22.658,10.145,22.658,22.658C443.457,318.513,433.315,328.658,420.801,328.658z"/>
		<path d="M306,0C137.272,0,0,137.272,0,306.002C0,474.73,137.272,612,306,612s306-137.27,306-305.998C612,137.272,474.728,0,306,0z
			 M306,564.923C163.23,564.923,47.077,448.77,47.077,306C47.077,163.228,163.228,47.074,306,47.074
			c142.77,0,258.923,116.154,258.923,258.926C564.923,448.77,448.77,564.923,306,564.923z"/>
	</g>

</svg>
